<svg width="88" height="79" viewBox="0 0 88 79" fill="none" xmlns="http://www.w3.org/2000/svg">
<path d="M76.5509 36.5086V26.3125C76.5509 22.6945 73.2702 19.7344 69.2604 19.7344H40.0981L32.8075 13.1562H10.9358C6.92602 13.1562 3.64526 16.1164 3.64526 19.7344V59.2031C3.64526 62.8211 6.92602 65.7812 10.9358 65.7812H37.1819C41.5562 71.7016 49.5758 75.6484 58.3245 75.6484C72.5411 75.6484 83.8415 65.4523 83.8415 52.625C83.8415 46.3758 80.9253 40.7844 76.5509 36.5086ZM33.9011 59.2031H10.9358V26.3125H69.2604V31.9039C65.9796 30.2594 62.3343 29.6016 58.3245 29.6016C44.1079 29.6016 32.8075 39.7977 32.8075 52.625C32.8075 54.9273 33.1721 57.2297 33.9011 59.2031ZM58.3245 69.0703C48.1177 69.0703 40.0981 61.8344 40.0981 52.625C40.0981 43.4156 48.1177 36.1797 58.3245 36.1797C68.5313 36.1797 76.5509 43.4156 76.5509 52.625C76.5509 61.8344 68.5313 69.0703 58.3245 69.0703ZM61.9698 46.0469H54.6792V39.4687H61.9698V46.0469ZM61.9698 65.7812H54.6792V49.3359H61.9698V65.7812Z" fill="#FF8A37"/>
</svg>
