<svg width="89" height="79" viewBox="0 0 89 79" fill="none" xmlns="http://www.w3.org/2000/svg">
<path d="M66.4942 60.8476C69.5198 60.8476 71.9621 58.644 71.9621 55.9141C71.9621 53.1841 69.5198 50.9805 66.4942 50.9805C63.4686 50.9805 61.0263 53.1841 61.0263 55.9141C61.0263 58.644 63.4686 60.8476 66.4942 60.8476ZM71.9621 31.2461H62.8489V39.4687H79.1069L71.9621 31.2461ZM22.7508 60.8476C25.7764 60.8476 28.2188 58.644 28.2188 55.9141C28.2188 53.1841 25.7764 50.9805 22.7508 50.9805C19.7252 50.9805 17.2829 53.1841 17.2829 55.9141C17.2829 58.644 19.7252 60.8476 22.7508 60.8476ZM73.7848 26.3125L84.7206 39.4687V55.9141H77.4301C77.4301 61.3739 72.5454 65.7812 66.4942 65.7812C60.4431 65.7812 55.5584 61.3739 55.5584 55.9141H33.6867C33.6867 61.3739 28.802 65.7812 22.7508 65.7812C16.6997 65.7812 11.815 61.3739 11.815 55.9141H4.52441V19.7344C4.52441 16.0835 7.76872 13.1562 11.815 13.1562H62.8489V26.3125H73.7848ZM11.815 19.7344V49.3359H14.5854C16.5903 47.3296 19.5065 46.0469 22.7508 46.0469C25.9951 46.0469 28.9114 47.3296 30.9163 49.3359H55.5584V19.7344H11.815ZM37.332 23.0234L50.0904 34.5352L37.332 46.0469V37.8242H19.1055V31.2461H37.332V23.0234Z" fill="#FF8A37"/>
</svg>
