<svg width="89" height="79" viewBox="0 0 89 79" fill="none" xmlns="http://www.w3.org/2000/svg">
<path d="M70.8783 62.1633C72.4458 59.8938 73.3571 57.1639 73.3571 54.2695C73.3571 46.0469 66.0666 39.4687 56.9898 39.4687C47.9131 39.4687 40.586 46.0469 40.586 54.2695C40.586 62.4922 47.8766 69.0703 56.9898 69.0703C60.1612 69.0703 63.1503 68.248 65.6656 66.8337L77.0389 76.9312L82.1058 72.3594L70.8783 62.1633ZM56.9898 62.4922C51.9229 62.4922 47.8766 58.8084 47.8766 54.2695C47.8766 49.7306 51.9229 46.0469 56.9898 46.0469C62.0568 46.0469 66.0666 49.7306 66.0666 54.2695C66.0666 58.8084 62.0203 62.4922 56.9898 62.4922ZM80.83 46.0469H78.8251C77.6221 43.3827 75.7995 41.0146 73.5394 39.0083V32.8906H80.83V46.0469ZM73.5394 13.1562H62.6036V6.57812H73.5394C75.473 6.57813 77.3274 7.27118 78.6946 8.50481C80.0619 9.73845 80.83 11.4116 80.83 13.1562V23.0234H73.5394V13.1562ZM51.6677 13.1562H37.0866V6.57812H51.6677V13.1562ZM15.2149 6.57812H26.1507V13.1562H15.2149V23.0234H7.92432V13.1562C7.92432 11.4116 8.69243 9.73845 10.0597 8.50481C11.4269 7.27118 13.2813 6.57813 15.2149 6.57812ZM44.3771 72.3594H37.0866V65.7812C38.9092 68.4783 41.4609 70.7148 44.3771 72.3594ZM15.2149 65.7812H26.1507V72.3594H15.2149C13.2813 72.3594 11.4269 71.6663 10.0597 70.4327C8.69243 69.199 7.92432 67.5259 7.92432 65.7812V55.9141H15.2149V65.7812ZM15.2149 46.0469H7.92432V32.8906H15.2149V46.0469Z" fill="#FF8A37"/>
</svg>
