<svg width="87" height="87" viewBox="0 0 87 87" fill="none" xmlns="http://www.w3.org/2000/svg">
<path d="M72.5 56.1875C67.9688 56.1875 63.6188 55.4625 59.5588 54.1213C59.1963 54.0125 58.7975 53.94 58.435 53.94C57.4925 53.94 56.5863 54.375 55.8612 54.9912L47.8862 62.9663C37.6054 57.7361 29.2433 49.3867 23.9975 39.1138L31.9725 31.1025C32.9875 30.1237 33.2775 28.71 32.8787 27.4412C31.5036 23.2655 30.806 18.8964 30.8125 14.5C30.8125 12.5062 29.1812 10.875 27.1875 10.875H14.5C12.5062 10.875 10.875 12.5062 10.875 14.5C10.875 48.5387 38.4612 76.125 72.5 76.125C74.4938 76.125 76.125 74.4938 76.125 72.5V59.8125C76.125 57.8187 74.4938 56.1875 72.5 56.1875ZM18.2338 18.125H23.6713C23.925 21.315 24.4688 24.4688 25.375 27.5138L20.9887 31.9C19.5025 27.5138 18.56 22.91 18.2338 18.125ZM68.875 68.7662C64.09 68.44 59.45 67.4975 55.1 66.0112L59.45 61.625C62.5312 62.5312 65.685 63.075 68.875 63.2925V68.7662ZM43.5 10.875V47.125L54.375 36.25H76.125V10.875H43.5ZM68.875 29H50.75V18.125H68.875V29Z" fill="#FF8A37"/>
</svg>
