<svg width="42" height="42" viewBox="0 0 42 42" fill="none" xmlns="http://www.w3.org/2000/svg">
<path d="M23.4674 21L30.9924 13.4925C31.3219 13.1629 31.5071 12.716 31.5071 12.25C31.5071 11.7839 31.3219 11.337 30.9924 11.0075C30.6629 10.6779 30.2159 10.4928 29.7499 10.4928C29.2839 10.4928 28.8369 10.6779 28.5074 11.0075L20.9999 18.5325L13.4924 11.0075C13.1629 10.6779 12.7159 10.4928 12.2499 10.4928C11.7839 10.4928 11.3369 10.6779 11.0074 11.0075C10.6779 11.337 10.4927 11.7839 10.4927 12.25C10.4927 12.716 10.6779 13.1629 11.0074 13.4925L18.5324 21L11.0074 28.5075C10.8434 28.6701 10.7132 28.8637 10.6243 29.0769C10.5355 29.2902 10.4897 29.5189 10.4897 29.75C10.4897 29.981 10.5355 30.2097 10.6243 30.423C10.7132 30.6362 10.8434 30.8298 11.0074 30.9925C11.1701 31.1565 11.3636 31.2867 11.5769 31.3755C11.7901 31.4644 12.0189 31.5101 12.2499 31.5101C12.4809 31.5101 12.7096 31.4644 12.9229 31.3755C13.1362 31.2867 13.3297 31.1565 13.4924 30.9925L20.9999 23.4675L28.5074 30.9925C28.6701 31.1565 28.8636 31.2867 29.0769 31.3755C29.2901 31.4644 29.5189 31.5101 29.7499 31.5101C29.9809 31.5101 30.2096 31.4644 30.4229 31.3755C30.6362 31.2867 30.8297 31.1565 30.9924 30.9925C31.1564 30.8298 31.2866 30.6362 31.3755 30.423C31.4643 30.2097 31.51 29.981 31.51 29.75C31.51 29.5189 31.4643 29.2902 31.3755 29.0769C31.2866 28.8637 31.1564 28.6701 30.9924 28.5075L23.4674 21Z" fill="black"/>
</svg>
