<svg width="264" height="60" viewBox="0 0 264 60" fill="none" xmlns="http://www.w3.org/2000/svg">
<path d="M66.688 23.456H60.128V17.6H80.8V23.456H74.24V40H66.688V23.456ZM94.193 40.512C91.7823 40.512 89.617 40.0107 87.697 39.008C85.777 38.0053 84.273 36.6187 83.185 34.848C82.097 33.056 81.553 31.04 81.553 28.8C81.553 26.56 82.097 24.5547 83.185 22.784C84.273 20.992 85.777 19.5947 87.697 18.592C89.617 17.5893 91.7823 17.088 94.193 17.088C96.6037 17.088 98.769 17.5893 100.689 18.592C102.609 19.5947 104.113 20.992 105.201 22.784C106.289 24.5547 106.833 26.56 106.833 28.8C106.833 31.04 106.289 33.056 105.201 34.848C104.113 36.6187 102.609 38.0053 100.689 39.008C98.769 40.0107 96.6037 40.512 94.193 40.512ZM94.193 34.4C95.1317 34.4 95.9743 34.176 96.721 33.728C97.489 33.2587 98.097 32.608 98.545 31.776C98.993 30.9227 99.217 29.9307 99.217 28.8C99.217 27.6693 98.993 26.688 98.545 25.856C98.097 25.0027 97.489 24.352 96.721 23.904C95.9743 23.4347 95.1317 23.2 94.193 23.2C93.2543 23.2 92.401 23.4347 91.633 23.904C90.8863 24.352 90.289 25.0027 89.841 25.856C89.393 26.688 89.169 27.6693 89.169 28.8C89.169 29.9307 89.393 30.9227 89.841 31.776C90.289 32.608 90.8863 33.2587 91.633 33.728C92.401 34.176 93.2543 34.4 94.193 34.4ZM119.174 34.368H117.126V40H109.574V17.6H120.358C122.427 17.6 124.23 17.9413 125.766 18.624C127.302 19.3067 128.486 20.288 129.318 21.568C130.15 22.848 130.566 24.3413 130.566 26.048C130.566 27.648 130.203 29.0453 129.478 30.24C128.753 31.4347 127.707 32.384 126.342 33.088L131.046 40H122.982L119.174 34.368ZM122.95 26.048C122.95 25.216 122.694 24.576 122.182 24.128C121.67 23.6587 120.902 23.424 119.878 23.424H117.126V28.672H119.878C120.902 28.672 121.67 28.448 122.182 28C122.694 27.5307 122.95 26.88 122.95 26.048ZM153.418 40L153.354 29.792L148.49 37.984H145.162L140.298 30.144V40H133.418V17.6H139.626L146.922 29.536L154.026 17.6H160.234L160.298 40H153.418ZM175.693 40.512C173.282 40.512 171.117 40.0107 169.197 39.008C167.277 38.0053 165.773 36.6187 164.685 34.848C163.597 33.056 163.053 31.04 163.053 28.8C163.053 26.56 163.597 24.5547 164.685 22.784C165.773 20.992 167.277 19.5947 169.197 18.592C171.117 17.5893 173.282 17.088 175.693 17.088C178.104 17.088 180.269 17.5893 182.189 18.592C184.109 19.5947 185.613 20.992 186.701 22.784C187.789 24.5547 188.333 26.56 188.333 28.8C188.333 31.04 187.789 33.056 186.701 34.848C185.613 36.6187 184.109 38.0053 182.189 39.008C180.269 40.0107 178.104 40.512 175.693 40.512ZM175.693 34.4C176.632 34.4 177.474 34.176 178.221 33.728C178.989 33.2587 179.597 32.608 180.045 31.776C180.493 30.9227 180.717 29.9307 180.717 28.8C180.717 27.6693 180.493 26.688 180.045 25.856C179.597 25.0027 178.989 24.352 178.221 23.904C177.474 23.4347 176.632 23.2 175.693 23.2C174.754 23.2 173.901 23.4347 173.133 23.904C172.386 24.352 171.789 25.0027 171.341 25.856C170.893 26.688 170.669 27.6693 170.669 28.8C170.669 29.9307 170.893 30.9227 171.341 31.776C171.789 32.608 172.386 33.2587 173.133 33.728C173.901 34.176 174.754 34.4 175.693 34.4ZM210.694 34.144V40H190.118V35.36L200.358 23.456H190.438V17.6H210.182V22.24L199.942 34.144H210.694ZM224.474 40.512C222.064 40.512 219.898 40.0107 217.978 39.008C216.058 38.0053 214.554 36.6187 213.466 34.848C212.378 33.056 211.834 31.04 211.834 28.8C211.834 26.56 212.378 24.5547 213.466 22.784C214.554 20.992 216.058 19.5947 217.978 18.592C219.898 17.5893 222.064 17.088 224.474 17.088C226.885 17.088 229.05 17.5893 230.97 18.592C232.89 19.5947 234.394 20.992 235.482 22.784C236.57 24.5547 237.114 26.56 237.114 28.8C237.114 31.04 236.57 33.056 235.482 34.848C234.394 36.6187 232.89 38.0053 230.97 39.008C229.05 40.0107 226.885 40.512 224.474 40.512ZM224.474 34.4C225.413 34.4 226.256 34.176 227.002 33.728C227.77 33.2587 228.378 32.608 228.826 31.776C229.274 30.9227 229.498 29.9307 229.498 28.8C229.498 27.6693 229.274 26.688 228.826 25.856C228.378 25.0027 227.77 24.352 227.002 23.904C226.256 23.4347 225.413 23.2 224.474 23.2C223.536 23.2 222.682 23.4347 221.914 23.904C221.168 24.352 220.57 25.0027 220.122 25.856C219.674 26.688 219.45 27.6693 219.45 28.8C219.45 29.9307 219.674 30.9227 220.122 31.776C220.57 32.608 221.168 33.2587 221.914 33.728C222.682 34.176 223.536 34.4 224.474 34.4ZM248.975 32.576L247.279 34.464V40H239.855V17.6H247.279V25.728L254.639 17.6H262.863L253.903 27.456L263.311 40H254.575L248.975 32.576Z" fill="#FF8A37"/>
<path fill-rule="evenodd" clip-rule="evenodd" d="M28.7531 9.87539L17.2993 10.0123L11.4538 19.8631L5.84545 29.8509L11.4538 39.8386L17.2993 49.6895L28.7531 49.8264L40.207 49.6895L46.0524 39.8386L51.6608 29.8509L46.0524 19.8631L40.207 10.0123L28.7531 9.87539ZM34.786 40.4534C40.7646 37.0016 42.813 29.3567 39.3613 23.3781C35.9095 17.3994 28.2646 15.351 22.2859 18.8027C16.3073 22.2545 14.2589 29.8994 17.7106 35.8781C21.1624 41.8567 28.8073 43.9051 34.786 40.4534Z" fill="#FF8A37"/>
<circle cx="28.5" cy="29.5" r="7.5" fill="#FF8A37"/>
</svg>
